<svg width="375" height="362" viewBox="0 0 375 362" fill="none" xmlns="http://www.w3.org/2000/svg">
<g id="Group 1">
<g id="musical-note-quaver-svgrepo-com 1" clip-path="url(#clip0_1_16)">
<path id="Vector" d="M156.273 265.582C152.368 265.582 149.202 262.445 149.202 258.576V121.968C149.202 118.951 151.151 116.273 154.04 115.321L284.319 72.3582C286.474 71.6477 288.844 72.0059 290.687 73.323C292.531 74.6397 293.623 76.7541 293.623 79.0057V215.614C293.623 219.483 290.457 222.62 286.552 222.62C282.647 222.62 279.481 219.483 279.481 215.614V88.7214L163.343 127.02V258.576C163.344 262.445 160.178 265.582 156.273 265.582Z" fill="white"/>
<path id="Vector_2" d="M250.14 186.19C225.756 186.19 206.656 199.115 206.656 215.614C206.656 232.113 225.757 245.038 250.14 245.038C274.522 245.038 293.623 232.113 293.623 215.614C293.623 199.115 274.523 186.19 250.14 186.19Z" fill="white"/>
<path id="Vector_3" d="M290.688 73.3234C288.845 72.0063 286.475 71.6481 284.319 72.3586L154.04 115.321C151.151 116.274 149.202 118.952 149.202 121.968V169.33L293.623 121.257V79.0061C293.623 76.7549 292.531 74.6405 290.688 73.3234Z" fill="white"/>
<path id="Vector_4" d="M119.861 229.152C95.4773 229.152 76.3773 242.077 76.3773 258.576C76.3773 275.075 95.4778 288 119.861 288C144.243 288 163.344 275.075 163.344 258.576C163.344 242.077 144.243 229.152 119.861 229.152Z" fill="white"/>
<path id="Vector_5" d="M290.688 73.3234C288.845 72.0063 286.475 71.6481 284.319 72.3586L221.413 93.1034V145.293L293.623 121.257V79.0061C293.623 76.7549 292.531 74.6405 290.688 73.3234Z" fill="white"/>
</g>
<g id="material-symbols:circle-outline">
<path id="Vector_6" d="M187.5 342.607C165.369 342.607 144.571 338.362 125.107 329.873C105.642 321.394 88.7105 309.882 74.3121 295.337C59.9136 280.792 48.5175 263.689 40.1237 244.027C31.7193 224.365 27.5171 203.356 27.5171 181C27.5171 158.644 31.7193 137.635 40.1237 117.973C48.5175 98.311 59.9136 81.2076 74.3121 66.6629C88.7105 52.1183 105.642 40.6011 125.107 32.1113C144.571 23.6323 165.369 19.3929 187.5 19.3929C209.631 19.3929 230.429 23.6323 249.893 32.1113C269.358 40.6011 286.289 52.1183 300.688 66.6629C315.086 81.2076 326.482 98.311 334.876 117.973C343.281 137.635 347.483 158.644 347.483 181C347.483 203.356 343.281 224.365 334.876 244.027C326.482 263.689 315.086 280.792 300.688 295.337C286.289 309.882 269.358 321.394 249.893 329.873C230.429 338.362 209.631 342.607 187.5 342.607ZM187.5 310.286C223.23 310.286 253.493 297.761 278.29 272.712C303.088 247.663 315.486 217.092 315.486 181C315.486 144.908 303.088 114.337 278.29 89.2879C253.493 64.2388 223.23 51.7143 187.5 51.7143C151.77 51.7143 121.507 64.2388 96.7097 89.2879C71.9123 114.337 59.5136 144.908 59.5136 181C59.5136 217.092 71.9123 247.663 96.7097 272.712C121.507 297.761 151.77 310.286 187.5 310.286Z" fill="white"/>
</g>
</g>
<defs>
<clipPath id="clip0_1_16">
<rect width="218" height="216" fill="white" transform="translate(76 72)"/>
</clipPath>
</defs>
</svg>
